<svg width="335" height="335" viewBox="0 0 335 335" fill="none" xmlns="http://www.w3.org/2000/svg"><path fill-rule="evenodd" clip-rule="evenodd" d="M167.5 335c92.508 0 167.5-74.861 167.5-167.208C335 75.446 260.008.585 167.5.585S0 75.446 0 167.792C0 260.139 74.992 335 167.5 335Zm0-36.453c72.34 0 130.983-58.541 130.983-130.755 0-72.213-58.643-130.754-130.983-130.754S36.517 95.578 36.517 167.792 95.16 298.547 167.5 298.547Z" fill="#EFEFEF"/><path d="M287.37 167c0 66.524-54.023 120.453-120.664 120.453-66.64 0-120.663-53.929-120.663-120.453S100.066 46.547 166.706 46.547c66.641 0 120.664 53.929 120.664 120.453Z" stroke="#5E5E5E" stroke-linecap="round" stroke-dasharray="1 18"/></svg>