<svg width="46" height="46" viewBox="0 0 46 46" fill="none" xmlns="http://www.w3.org/2000/svg"><circle cx="23" cy="23" r="20" fill="#fff" stroke="#00C3B9" stroke-width="6"/><g clip-path="url(#a)" fill="#00C3B9"><path fill-rule="evenodd" clip-rule="evenodd" d="M12.25 19c0-.966.784-1.75 1.75-1.75h3.5a.75.75 0 0 1 0 1.5H14a.25.25 0 0 0-.25.25v8c0 .138.112.25.25.25h3.5a.75.75 0 0 1 0 1.5H14A1.75 1.75 0 0 1 12.25 27v-8Zm13.5-1a.75.75 0 0 1 .75-.75H30c.966 0 1.75.784 1.75 1.75v8A1.75 1.75 0 0 1 30 28.75h-3.5a.75.75 0 0 1 0-1.5H30a.25.25 0 0 0 .25-.25v-8a.25.25 0 0 0-.25-.25h-3.5a.75.75 0 0 1-.75-.75Zm-3.413-.67a.75.75 0 0 1 .335 1.005l-1.958 3.915h3.788a.75.75 0 0 1 .67 1.086l-2.501 5a.75.75 0 0 1-1.342-.672l1.959-3.914H19.5a.75.75 0 0 1-.67-1.085l2.5-5a.75.75 0 0 1 1.007-.336Z"/><path d="M32 21h1a1 1 0 0 1 1 1v2a1 1 0 0 1-1 1h-1v-4Z"/></g><defs><clipPath id="a"><path fill="#fff" d="M11 11h24v24H11z"/></clipPath></defs></svg>